Coordinates
version=1
nRows=22
nColumns=24
inDegrees=yes

Units are S.I. units (second, meters, Newtons, ...)
Angles are in degrees.

endheader
time	pelvis_tilt	pelvis_list	pelvis_rotation	pelvis_tx	pelvis_ty	pelvis_tz	hip_flexion_r	hip_adduction_r	hip_rotation_r	knee_angle_r	ankle_angle_r	subtalar_angle_r	mtp_angle_r	hip_flexion_l	hip_adduction_l	hip_rotation_l	knee_angle_l	ankle_angle_l	subtalar_angle_l	mtp_angle_l	lumbar_extension	lumbar_bending	lumbar_rotation
      1.23300000	     -2.80325734	      1.97222182	     -1.30924926	      0.22707312	      1.03052960	      0.26372075	     17.69366959	     -2.92096000	     -6.60432206	    -62.31008203	      0.43151247	     -7.20719285	      8.65835123	     11.46310743	      6.07955640	      4.16747510	    -13.00031341	      3.86982669	    -10.74662094	     -1.01448415	     -3.58409284	     -3.04796644	      2.63728376
      1.23716667	     -2.83617317	      1.90765248	     -1.43496788	      0.23242103	      1.03116258	      0.26360862	     18.26494221	     -2.76675596	     -6.34610147	    -61.97817591	      1.16817023	     -7.29918747	      5.91612606	     11.04770318	      6.00868070	      4.11258572	    -12.76865117	      4.01631678	    -10.77267182	     -2.16247557	     -3.58018729	     -2.93650860	      2.82322093
      1.24133333	     -2.86797389	      1.81351000	     -1.52414168	      0.23778588	      1.03179637	      0.26345622	     18.80050681	     -2.58876821	     -6.13580122	    -61.54838475	      1.78095933	     -7.46305968	      5.92129239	     10.63185400	      5.91153259	      4.09095668	    -12.54232698	      4.16894142	    -10.78375854	     -2.16460416	     -3.58176119	     -2.78916342	      2.75224741
      1.24550000	     -2.90653561	      1.73446903	     -1.62878691	      0.24311980	      1.03237699	      0.26332238	     19.34272416	     -2.42203857	     -5.90191673	    -61.08673397	      2.42635619	     -7.48609721	      5.90836281	     10.22552182	      5.82935234	      4.05028311	    -12.31608096	      4.30933007	    -10.77221408	     -2.18056381	     -3.60446771	     -2.65315001	      2.71880554
      1.24966667	     -2.93101401	      1.66334882	     -1.73809916	      0.24848547	      1.03296508	      0.26322475	     19.84998490	     -2.25793315	     -5.66840361	    -60.55304293	      2.96045449	     -7.64724091	      5.90472868	      9.79098466	      5.75331884	      4.00101195	    -12.06441741	      4.44725767	    -10.78410015	     -2.18841988	     -3.59819187	     -2.53905716	      2.70539617
      1.25383333	     -2.96568962	      1.58098429	     -1.84741660	      0.25382895	      1.03351733	      0.26314496	     20.35339748	     -2.07485144	     -5.43160832	    -59.96180550	      3.48090743	     -7.76645827	      5.89601534	      9.37170770	      5.66519310	      3.95089999	    -11.82026576	      4.57709001	    -10.79497533	     -2.20072019	     -3.60394942	     -2.40574716	      2.70890927
      1.25800000	     -2.98958075	      1.49225711	     -1.95556358	      0.25915365	      1.03404047	      0.26306430	     20.83058783	     -1.88486959	     -5.19839324	    -59.31796801	      3.97732964	     -7.86756221	      5.87911814	      8.94362692	      5.57218771	      3.89507582	    -11.57985659	      4.71020887	    -10.80497069	     -2.21908203	     -3.62696550	     -2.26431710	      2.72581194
      1.26216667	     -3.01157323	      1.40881630	     -2.06176778	      0.26447876	      1.03455409	      0.26300387	     21.28812464	     -1.69762772	     -4.96600162	    -58.61446632	      4.42177480	     -7.97744368	      5.86046798	      8.50945537	      5.48604194	      3.84962598	    -11.32987573	      4.84271880	    -10.81197210	     -2.23804170	     -3.64375897	     -2.13596496	      2.73577187
      1.26633333	     -3.04135242	      1.32434468	     -2.16452021	      0.26978373	      1.03500916	      0.26294782	     21.73958779	     -1.50840654	     -4.73697711	    -57.86077437	      4.83259914	     -8.08559199	      5.83716632	      8.08863279	      5.40013021	      3.80194168	    -11.08719337	      4.97461432	    -10.82695705	     -2.26057028	     -3.66205455	     -2.00679534	      2.74667124
      1.27050000	     -3.07566404	      1.24629474	     -2.26339424	      0.27507321	      1.03541165	      0.26290704	     22.18223583	     -1.32428477	     -4.50935559	    -57.05955046	      5.20510877	     -8.19228498	      5.80886766	      7.67726425	      5.32247179	      3.75718621	    -10.85152451	      5.10576990	    -10.84777192	     -2.28694632	     -3.67347573	     -1.88551473	      2.75516429
      1.27466667	     -3.05284337	      1.14042614	     -2.35165392	      0.28035236	      1.03590850	      0.26286638	     22.52953221	     -1.11300858	     -4.29713402	    -56.17184743	      5.49401821	     -8.32039696	      5.70223582	      7.19841535	      5.21932808	      3.73623720	    -10.60330847	      5.23332386	    -10.86513118	     -2.37805240	     -3.76960041	     -1.74013407	      2.79677523
      1.27883333	     -3.10170016	      1.06722866	     -2.43444709	      0.28559591	      1.03621442	      0.26282663	     22.95515197	     -0.93550339	     -4.08059446	    -55.26826263	      5.80415381	     -8.43575421	      5.64132510	      6.81977628	      5.15069723	      3.69274785	    -10.39472285	      5.35397513	    -10.91271115	     -2.43340521	     -3.77188919	     -1.63538943	      2.78230983
      1.28300000	     -3.12586344	      0.97502560	     -2.50865370	      0.29084072	      1.03654532	      0.26278483	     23.32536209	     -0.74221487	     -3.88198023	    -54.29240629	      6.04032508	     -8.56640411	      5.57075166	      6.40846380	      5.06486205	      3.67421358	    -10.17478420	      5.48143989	    -10.95916420	     -2.49646495	     -3.80220217	     -1.49790431	      2.76806932
      1.28716667	     -3.17764202	      0.91850203	     -2.58707591	      0.29606827	      1.03677959	      0.26275132	     23.72118690	     -0.58369222	     -3.66896107	    -53.28874670	      6.23018936	     -8.71532719	      4.20244794	      6.00392897	      5.02816422	      3.76371952	     -9.89620215	      5.50513371	    -11.21563454	     -3.78231994	     -3.80265767	     -1.40360619	      2.70648304
      1.29133333	     -3.18980905	      0.82249629	     -2.63163356	      0.30129509	      1.03705232	      0.26268896	     24.03417028	     -0.40211810	     -3.51090688	    -52.20228737	      6.39509475	     -8.84934854	      4.16809143	      5.59648739	      4.93943450	      3.73149494	     -9.70895675	      5.71856782	    -11.15606316	     -3.81215385	     -3.84547603	     -1.27089007	      2.69914668
      1.29550000	     -3.24218352	      0.75696415	     -2.68398658	      0.30649286	      1.03719870	      0.26264745	     24.38658819	     -0.24521954	     -3.33122138	    -51.08683068	      6.50221511	     -9.01722199	      4.12346567	      5.23635662	      4.88491906	      3.70847965	     -9.51954454	      5.85964733	    -11.17809175	     -3.85574275	     -3.84906861	     -1.17196882	      2.65598503
      1.29966667	     -3.28573638	      0.68274953	     -2.72111993	      0.31167423	      1.03733614	      0.26259188	     24.70390499	     -0.08800446	     -3.17194633	    -49.91136298	      6.59586616	     -9.15800468	      4.08700242	      4.87308947	      4.82380803	      3.70246101	     -9.34083998	      5.98656653	    -11.23411206	     -3.89224688	     -3.86382887	     -1.06156699	      2.61154434
      1.30383333	     -3.33335069	      0.61096977	     -2.75194678	      0.31686433	      1.03743655	      0.26253419	     25.00239218	      0.06319652	     -3.02287294	    -48.67925658	      6.62143993	     -9.33914323	      4.04378759	      4.50976436	      4.76685076	      3.71678398	     -9.15256340	      6.10920488	    -11.29889625	     -3.93452390	     -3.87454194	     -0.95164978	      2.55242235
      1.30800000	     -3.37035628	      0.55560353	     -2.77465344	      0.32204957	      1.03751059	      0.26247742	     25.27176937	      0.18977283	     -2.88723189	    -47.39908678	      6.56912660	     -9.57523932	      3.97547776	      4.12834896	      4.72989259	      3.75652242	     -8.94474842	      6.22261258	    -11.37498941	     -4.00562441	     -3.89712069	     -0.87432389	      2.46593020
      1.31216667	     -3.41627895	      0.49916823	     -2.78997015	      0.32722587	      1.03754525	      0.26242578	     25.52653773	      0.31607972	     -2.75546436	    -46.06640908	      6.52290149	     -9.78181060	      3.89065280	      3.76701802	      4.69090572	      3.79129056	     -8.75860133	      6.32772614	    -11.46215655	     -4.10044909	     -3.91850896	     -0.78795711	      2.37758337
      1.31633333	     -3.46970801	      0.44379183	     -2.78616860	      0.33240829	      1.03752751	      0.26233407	     25.76648764	      0.42395884	     -2.66360921	    -44.68301332	      6.43390562	     -9.98301812	      3.81788442	      3.42000751	      4.65450885	      3.82378348	     -8.58343601	      6.44434782	    -11.52802164	     -4.17819233	     -3.91394345	     -0.70583594	      2.29294662
      1.32050000	     -3.52702555	      0.40499806	     -2.78163912	      0.33758197	      1.03745986	      0.26226371	     25.99272833	      0.51636876	     -2.56548898	    -43.25665262	      6.32062015	    -10.19544062	      3.74046774	      3.08013157	      4.63484429	      3.85966304	     -8.41168802	      6.55194710	    -11.59580056	     -4.26118356	     -3.91194009	     -0.63857449	      2.19632816
